<svg width="21" height="20" viewBox="0 0 21 20" fill="none" xmlns="http://www.w3.org/2000/svg">
<path fill-rule="evenodd" clip-rule="evenodd" d="M10.6056 20C16.0386 20 20.4588 15.514 20.4588 10C20.4588 4.486 16.0386 -3.95462e-07 10.6056 -8.81546e-07C5.1725 -1.36763e-06 0.75234 4.486 0.752339 10C0.752339 15.514 5.1725 20 10.6056 20ZM10.6056 2C14.9518 2 18.4882 5.589 18.4882 10C18.4882 14.411 14.9518 18 10.6056 18C6.25931 18 2.72298 14.411 2.72299 10C2.72299 5.589 6.25931 2 10.6056 2ZM6.66428 11L14.5469 11C15.0917 11 15.5322 10.553 15.5322 10C15.5322 9.447 15.0917 9 14.5469 9L6.66428 9C6.11939 9 5.67896 9.447 5.67895 10C5.67895 10.553 6.11939 11 6.66428 11Z" fill="#BF1D08"/>
</svg>
