<svg width="20" height="20" viewBox="0 0 20 20" fill="none" xmlns="http://www.w3.org/2000/svg">
<path fill-rule="evenodd" clip-rule="evenodd" d="M10.0584 0C4.62536 0 0.2052 4.486 0.2052 10C0.2052 15.514 4.62536 20 10.0584 20C15.4915 20 19.9117 15.514 19.9117 10C19.9117 4.486 15.4915 0 10.0584 0ZM10.0584 18C5.71217 18 2.17585 14.411 2.17585 10C2.17585 5.589 5.71217 2 10.0584 2C14.4047 2 17.941 5.589 17.941 10C17.941 14.411 14.4047 18 10.0584 18ZM13.9997 9H11.0438V6C11.0438 5.447 10.6033 5 10.0584 5C9.51355 5 9.07311 5.447 9.07311 6V9H6.11714C5.57226 9 5.13182 9.447 5.13182 10C5.13182 10.553 5.57226 11 6.11714 11H9.07311V14C9.07311 14.553 9.51355 15 10.0584 15C10.6033 15 11.0438 14.553 11.0438 14V11H13.9997C14.5446 11 14.985 10.553 14.985 10C14.985 9.447 14.5446 9 13.9997 9Z" fill="#1C9956"/>
</svg>
